<svg width="756" height="759" viewBox="0 0 756 759" fill="none" xmlns="http://www.w3.org/2000/svg">
<ellipse cx="283" cy="94.5" rx="95" ry="94.5" fill="#00A19B" fill-opacity="0.4"/>
<circle cx="283" cy="473" r="95" fill="#00A19B" fill-opacity="0.4"/>
<circle cx="95" cy="663" r="95" fill="#00A19B" fill-opacity="0.4"/>
<path d="M0 94C0 42.0852 42.0852 0 94 0C145.915 0 188 42.0852 188 94V198H99C44.3238 198 0 153.676 0 99V94Z" fill="#007A79" fill-opacity="0.4"/>
<path d="M565 283.5C565 231.309 607.806 189 659.997 189C712.741 189 756 231.757 756 284.5V378H659.5C607.309 378 565 335.691 565 283.5Z" fill="#007A79" fill-opacity="0.4"/>
<path d="M756 473C756 525.467 713.218 568 660.751 568C608.007 568 565 525.243 565 472.5V378H661C713.467 378 756 420.533 756 473Z" fill="#007A79" fill-opacity="0.4"/>
<path d="M0 473.503C0 525.417 42.0852 568 94 568C145.915 568 188 525.915 188 474L188 378H95C42.533 378 0 421.036 0 473.503Z" fill="#007A79" fill-opacity="0.4"/>
<path d="M190 662.497C190 610.583 232.085 568 284 568C335.915 568 378 610.085 378 662V758H285C232.533 758 190 714.964 190 662.497Z" fill="#007A79" fill-opacity="0.4"/>
<path fill-rule="evenodd" clip-rule="evenodd" d="M378 568C430.467 568 473 525.467 473 473C473 420.533 430.467 378 378 378V568Z" fill="#007A79" fill-opacity="0.4"/>
<path fill-rule="evenodd" clip-rule="evenodd" d="M565 758.238C565 653.346 481.325 568.281 378 568V665.332C428.569 665.633 469.507 707.062 469.8 758.238H565Z" fill="#00A19B" fill-opacity="0.4"/>
<path fill-rule="evenodd" clip-rule="evenodd" d="M187.82 198C187.82 297.411 107.96 378 9.44893 378C6.2793 378 3.12897 377.917 0 377.752V285.405C3.09199 285.737 6.23191 285.907 9.41127 285.907C57.7569 285.907 96.9815 246.598 97.2612 198H187.82Z" fill="#00A19B" fill-opacity="0.4"/>
</svg>
